inDegrees=no
num_controls=7
num_derivatives=13
num_iterations=120
num_multipliers=7
num_parameters=0
num_slacks=7
num_states=26
objective=0.434518
objective_accelerations=0.056459
objective_balance=0.006985
objective_effort=0.037900
objective_height=0.329707
objective_ligament=0.003467
solver_duration=1838.879237
status=Solve_Succeeded
success=true
DataType=double
version=3
OpenSimVersion=4.5
endheader
time	/jointset/ground_pelvis/pelvis_tilt/value	/jointset/ground_pelvis/pelvis_tx/value	/jointset/ground_pelvis/pelvis_ty/value	/jointset/hip_l/hip_flexion_l/value	/jointset/hip_l/hip_adduction_l/value	/jointset/hip_l/hip_rotation_l/value	/jointset/back/lumbar_extension/value	/jointset/patellofemoral_l/patellar_flexion_l/value	/jointset/knee_l/knee_flexion_l/value	/jointset/knee_l/knee_adduction_l/value	/jointset/knee_l/knee_rotation_l/value	/jointset/ankle_l/ankle_angle_l/value	/jointset/subtalar_l/subtalar_angle_l/value	/jointset/ground_pelvis/pelvis_tilt/speed	/jointset/ground_pelvis/pelvis_tx/speed	/jointset/ground_pelvis/pelvis_ty/speed	/jointset/hip_l/hip_flexion_l/speed	/jointset/hip_l/hip_adduction_l/speed	/jointset/hip_l/hip_rotation_l/speed	/jointset/back/lumbar_extension/speed	/jointset/patellofemoral_l/patellar_flexion_l/speed	/jointset/knee_l/knee_flexion_l/speed	/jointset/knee_l/knee_adduction_l/speed	/jointset/knee_l/knee_rotation_l/speed	/jointset/ankle_l/ankle_angle_l/speed	/jointset/subtalar_l/subtalar_angle_l/speed	/forceset/tau_hip_flexion_l	/forceset/tau_hip_adduction_l	/forceset/tau_hip_rotation_l	/forceset/tau_knee_flexion_l	/forceset/tau_ankle_angle_l	/forceset/tau_subtalar_angle_l	/forceset/tau_lumbar_extension	lambda_cid13_p0	lambda_cid13_p1	lambda_cid13_p2	lambda_cid13_p3	lambda_cid13_p4	lambda_cid13_p5	lambda_cid14_p0	/jointset/ground_pelvis/pelvis_tilt/accel	/jointset/ground_pelvis/pelvis_tx/accel	/jointset/ground_pelvis/pelvis_ty/accel	/jointset/hip_l/hip_flexion_l/accel	/jointset/hip_l/hip_adduction_l/accel	/jointset/hip_l/hip_rotation_l/accel	/jointset/back/lumbar_extension/accel	/jointset/patellofemoral_l/patellar_flexion_l/accel	/jointset/knee_l/knee_flexion_l/accel	/jointset/knee_l/knee_adduction_l/accel	/jointset/knee_l/knee_rotation_l/accel	/jointset/ankle_l/ankle_angle_l/accel	/jointset/subtalar_l/subtalar_angle_l/accel	gamma_cid13_p0	gamma_cid13_p1	gamma_cid13_p2	gamma_cid13_p3	gamma_cid13_p4	gamma_cid13_p5	gamma_cid14_p0
1	-0.59030617299141	-0.1038716838880087	0.5269437436849466	2.094395021975548	-0.262517760102803	0.2523172255690773	-0.4363309415373589	1.494745073757265	1.494745073757293	-0.1743199195225892	0.1745321391864684	0.2062432936895006	0.03194120421511792	-0.009555870389809732	0.0009521940987921214	-0.003877141798648849	0.01710833540370759	0.001347647564288743	0.003954329869713701	4.167049781790332e-05	0.009768097219713133	0.009768097219714018	1.451670443907379e-05	-7.795996059681054e-06	0.002774569547344509	0.002240752764236094	-0.4174126254327312	-0.01721073239359839	-0.008060673729629684	-0.3305268977587668	0.1074729439481132	0.006195132022474682	0.3438216551450128	-13.55611827061263	1.032200311716531	-2.108054395580591	14.6826717437994	-746.155566200911	-49.5730690981832	-0.03724891169978151	1.238248848845098	0.01388810220314625	2.09255174313589	-6.714836998860335	-0.8166612096667577	-2.277034808202159	-0.01065384789841194	-5.745689178997837	-5.745689178997731	-0.08297544805731671	0.02210887641614006	-0.5507250235642041	-1.061007538523531	9.042057911490149e-10	2.252945043836266e-09	-9.504092162615741e-09	-2.403881942533607e-09	2.128565302036185e-09	-7.907187163163344e-09	1.814841904599243e-09
1.01	-0.5903402299917881	-0.1038614630640433	0.5270095416711794	2.094230811490384	-0.2625441712012927	0.2522410211516162	-0.4363305350695114	1.494555659134915	1.49455565913494	-0.1743208173690115	0.1745320768625686	0.2062438149306136	0.03191181332806668	0.002757610654514602	0.001097473416375217	0.01703748893431269	-0.04996468608162229	-0.006626386920142038	-0.01919171318547426	3.300772412478239e-05	-0.04764805111635633	-0.0476480511163711	-0.0001943944388671628	-3.709989955725529e-06	-0.002666587617014507	-0.008113350705819779	-0.4173879376076458	-0.0171739906171043	-0.008085549360622737	-0.3305341835647295	0.1076511082739083	0.006203891592683499	0.3438338648938188	-13.49393184021662	1.01662946744312	-2.104568961638104	14.55265385017057	-746.1493301990776	-49.5843144493338	-0.03726098310337906	1.229868995023842	0.01567488498357954	2.091029362935145	-6.705672794237466	-0.7872580912352761	-2.332870426246408	0.003035205749748614	-5.739130283172019	-5.739130283174449	0.01010049368460369	-0.0103086165650842	-0.5402500183766055	-1.021779866139988	-2.31425021155625e-09	-7.326333238206597e-10	4.256683076295797e-08	8.045092838943486e-09	-9.17979436277904e-09	5.75528091077619e-08	-8.850824506692447e-09
1.02	-0.5902507579291633	-0.1038496240392127	0.5272845080896538	2.093395443176192	-0.2626502193493076	0.25193346002919	-0.4363304136898299	1.493792172504751	1.493792172504775	-0.1743238144386353	0.174532081982875	0.2061900368089821	0.03177904778333619	0.01514994221074807	0.001275834271863889	0.0379565446496262	-0.1171232304016787	-0.01457976234073451	-0.04231701112343419	-1.534713538844221e-05	-0.1050463043428468	-0.1050463043428782	-0.0004053279360979226	5.692845243951075e-06	-0.008085303001567677	-0.01843417877161058	-0.41736324978256	-0.0171372488406097	-0.008110424991620771	-0.3305414693706921	0.1078292725997037	0.006212651162893045	0.3438460746426253	-13.43576731292198	1.002492172710609	-2.102145029563779	14.45090889739373	-746.1961037728842	-49.5323278474857	-0.03726204088218609	1.25401895122692	0.0205044097842632	2.093436739606286	-6.731941565805642	-0.8125293968990966	-2.272885784756556	-0.01859226506243683	-5.742110157082029	-5.742110157082123	-0.08337991884222119	0.02317224223528632	-0.5462366676030318	-1.054352457670517	-4.811666227666352e-09	-4.840899786646132e-09	9.470203478397501e-08	1.634332972759011e-08	-2.022581060756899e-08	1.20223303134038e-07	-1.953579827966548e-08
1.03	-0.5900369119519908	-0.103835786131531	0.5277686658708567	2.09188805299017	-0.2628355956240102	0.2513948184045066	-0.4363307612584092	1.492454754371396	1.49245475437144	-0.1743289240949289	0.1745321696959815	0.2060820814007573	0.03154335044139887	0.02763870175653035	0.001502263759181754	0.05887380000010312	-0.1843709903567646	-0.0224820906754989	-0.06540162904696087	-4.023890878580352e-05	-0.1624384951796917	-0.1624384951797033	-0.0006159881933548656	9.494958206768794e-06	-0.01351222894393551	-0.02868908082501108	-0.4174078512954021	-0.01704625783951907	-0.008193838611254072	-0.3304005832209546	0.107940757471135	0.006366296284689596	0.3439793142059057	-13.38966136211091	0.917216130972802	-2.076584620956758	14.3030399687218	-746.2327558495627	-49.57042403819644	-0.03729819826133275	1.249222393552281	0.02529466649955119	2.090681873383098	-6.723620875560441	-0.7770941616458714	-2.324818907018135	0.00765151727305767	-5.737943365776985	-5.73794336577394	0.01016858813770107	-0.01140607372651022	-0.541884741565524	-1.008644102764211	-7.301724692892828e-09	-8.96062225044272e-09	1.468378947345374e-07	2.461962031120784e-08	-3.126914987868521e-08	1.828653328516952e-07	-3.022096906653323e-08
